<svg id="Layer_1" data-name="Layer 1" xmlns="http://www.w3.org/2000/svg" viewBox="0 0 1280 1024">
  <defs>
    <style>
      .cls-1 {
        fill: #8bc53f;
      }
    </style>
  </defs>
  <title>PandesignLogos</title>
  <g>
    <path class="cls-1" d="M105.18,727.16,77.69,714.84,50.21,702.51s-8.38-4.4-14.15,8.47L3.73,803.07A349.87,349.87,0,0,1-19.48,855l-2.77-6.59c-3.63-8.61-6.86-17.4-9.78-26.29.39-3.09.75-6.18,1.23-9.25l15.08-96.43c1-14.06-8.46-14.15-8.46-14.15l-30-2.14-6.82-.49-1.43-6.45c-.05-.15-.11-.28-.16-.43l8.89.64,31,2.21c9.39.67,9.06-8,9.06-8l-2-81.11a348.77,348.77,0,0,1,4.09-62.75L3.47,447.36C4.47,433.29-5,433.2-5,433.2l-30-2.14-30.05-2.14s-9.38-1.26-10.38,12.81l1.25,97.58A351,351,0,0,1-79.08,602l-5.38,31.84-18.1-43A349,349,0,0,1-121.65,531l-21.14-95.28c-4.2-13.45-13.05-10.08-13.05-10.08l-28.75,9-28.76,9s-9.19,2.26-5,15.72l36.76,90.4a349.44,349.44,0,0,1,18.36,60.15l16.6,79.42s1.65,8.47,10.65,5.67l29.68-9.26,13.8-4.31-.12.7a8.8,8.8,0,0,0,1.28,6l-13,4L-133,701s-9.19,2.26-5,15.71l36.76,90.41c2.75,6.74,5.2,13.59,7.51,20.49a349.13,349.13,0,0,1-4.51,43.43l-13.52,80s-1.55,8.49,7.85,9.16l31,2.21,31,2.22c9.4.67,9.07-8,9.07-8l-.08-3.25,3,1.36,28.37,12.72C7,971.38,9.7,963.17,9.7,963.17l25.93-76.88A349.08,349.08,0,0,1,61,828.75l47.26-85.39C114,730.5,105.18,727.16,105.18,727.16Z"/>
    <path class="cls-1" d="M374.87,689.07c1.35.13,2.71.28,4,.34,3.4,0,6.59.1,9.6.07,5.95,14.76,108.08-25.7,108.08-25.7S393.88,672,388.46,687c-2.7-.27-5.55-.64-8.53-1,9.33-6.15,23.71-28.79,35.74-49.86,27.5,7.51,56.41,13,56.41,13s-24.7-13.06-50.16-24.22c8.88-16.17,15.32-29.13,15.32-29.13S426.65,607,414,621.58c-14.72-6.16-28.85-11.14-37.73-12q6.08-2.84,11.63-5.62c14.4,7.72,100.93-44.52,100.93-44.52S384.27,585.66,386,601.19c-6.93,3-14.4,5.9-22.3,9-.87.36-1.8.71-2.68,1.06,13.06-19.08,22.49-103.79,22.49-103.79s-14,32.37-23.48,61.6c-21.18-4-81.65-14.55-99-8.68,1.56-2.57,3-5,4.47-7.34,15.12,4.9,84.68-71.1,84.68-71.1s-94.64,55.77-86.64,69.53c-1.87,2.36-3.77,4.93-5.84,7.63-.76,1.07-1.48,2.23-2.21,3.38.55-19.69-17.57-69.68-25.55-90.66l25.78-76.44a349.92,349.92,0,0,1,25.38-57.54l47.26-85.39c5.77-12.86-3.09-16.19-3.09-16.19L297.82,224l-27.49-12.32s-8.38-4.4-14.15,8.46l-5.65,16.09c-13.64-5.64-26.4-10-34.45-10.71,1.22-.59,2.46-1.17,3.61-1.81,2.92-1.76,5.68-3.35,8.23-4.94,12.78,9.49,78.84-78.28,78.84-78.28s-83.34,60.58-80.18,76.15c-2.44,1.18-5.06,2.35-7.79,3.62,4.76-10.12,5.23-36.93,4.51-61.19,27.38-7.92,54.94-18.26,54.94-18.26s-27.89,1.73-55.43,5.48c-.86-18.43-2.11-32.86-2.11-32.86s-3.21,15.07-6.41,34.09c-15.78,2.43-30.43,5.54-38.47,9.41q3.69-5.58,7-10.86c16.31-.92,62.91-90.61,62.91-90.61s-75.53,76.91-66,89.27c-4.37,6.15-9.21,12.54-14.31,19.35-.56.76-1.17,1.55-1.74,2.31,1.2-23.1-34.92-100.3-34.92-100.3s4.93,34.92,12.08,64.81c-20.16,7.64-77.27,30.14-89,44.18,0-3,0-5.88,0-8.59C67.34,162.76,87.08,61.64,87.08,61.64S35.39,158.57,49.39,166.15c-.37,3-.64,6.16-1,9.55-.09,1.31-.09,2.68-.11,4-12.55-21.9-77.17-70.23-77.17-70.23s24.58,33.6,46.49,57.28a8.79,8.79,0,0,0-3.51-1.12l-30-2.14-30-2.15s-9.38-1.25-10.38,12.81l1.24,97.59A350.2,350.2,0,0,1-60,334.48l-13.53,80s-1.55,8.49,7.85,9.16l31,2.21,31,2.21c9.4.67,9.07-7.95,9.07-7.95L4.33,377c4.74-5.15,17.71-19.38,34.6-39.16,5.39-6.25,11.15-13.09,17.2-20.36s12.32-15,18.87-23c12.32-15.36,25.29-31.79,37.91-48.55H118c4,0,9.7-.22,16.49-.63s14.68-1.21,23.07-2.52c4.2-.58,8.52-1.35,12.88-2.25s8.77-2,13.15-3,8.68-2.59,12.93-3.84c3.74-1.4,7.38-2.77,10.91-4.2.08,6.37,17.65,13.61,38.42,19.94l-22,62.76a349.79,349.79,0,0,1-26.09,57.22l-40.16,70.5s-4.37,7.44,4.23,11.3L190.2,464l28.37,12.72c4.44,2,7.28.76,9-.9,3,28.65,11,93.36,23,94.86-1.82,3.35-3.59,6.82-5.4,10.38-1.72,4.08-3.69,8.18-5.27,12.41s-3.24,8.46-4.48,12.72-2.64,8.44-3.69,12.55c-2.24,8.19-3.81,16-5.1,22.64s-2,12.33-2.48,16.32c0,.25-.05.43-.08.67l-9.83,2.94c-9.86,2.8-19.33,5.63-28.39,8.07s-17.6,4.83-25.52,6.88c-11.12,2.94-20.9,5.39-29,7.36L146,640.16a349.92,349.92,0,0,1,25.38-57.54l47.26-85.38c5.77-12.87-3.09-16.2-3.09-16.2l-27.48-12.33-27.49-12.32s-8.38-4.4-14.15,8.46l-32.32,92.09A349.79,349.79,0,0,1,88,614.16l-40.16,70.5s-4.37,7.44,4.23,11.3l28.36,12.72,28.37,12.72c8.6,3.86,11.25-4.36,11.25-4.36L124,705.4c9.31-2.75,23.67-7.12,41.13-12.82,7.86-2.52,16.34-5.36,25.29-8.41s18.35-6.38,28.09-9.76c18.51-6.68,38.14-13.94,57.65-21.66l.33.21,4,2.48c3.43,2.09,8.39,4.86,14.4,8s13.16,6.62,21,9.88c3.88,1.7,8,3.29,12.16,4.79s8.51,2.88,12.8,4.28,8.75,2.31,13,3.46c3.92.75,7.74,1.48,11.5,2.1C357.48,701.38,436,773.64,436,773.64S395.21,704,374.87,689.07ZM44.49,307.2c-6.41,6.85-12.5,13.3-18.19,19.18-8.78,9.15-16.49,17-22.66,23.15L3.37,339a350.72,350.72,0,0,1,4.09-62.76l15.08-96.42c.32-4.44-.45-7.38-1.6-9.47,11.85,12.39,22.46,21.08,27.33,18.88.19,3.81.49,7.69.79,11.67.66,4.38,1.12,8.91,2,13.34s1.64,8.91,2.81,13.2c1,4.33,2.14,8.57,3.39,12.62,2.36,8.16,5.07,15.61,7.45,22s4.7,11.57,6.39,15.21l.28.61-6.85,7.64C57.55,293,51,300.4,44.49,307.2Zm37.07-40.78q-2.3-4.08-5.19-9.59C73.46,251,70.1,244.16,67,236.6c-1.61-3.75-3.12-7.69-4.54-11.73s-2.72-8.2-4-12.36-2.17-8.43-3.27-12.6c-.78-4.2-1.58-8.36-2.19-12.41-.13-1.51-.3-3-.45-4.45,13.38,4,69.63-35.9,88.89-50,5.09,20.79,11.23,38.61,17.5,39.68-3.7,4.84-7.49,9.75-11.47,14.76-6.27,8.11-12.9,16.37-19.75,24.68s-13.79,16.74-20.86,25.07C98.46,247.18,90,256.92,81.56,266.42Zm113.32-38.64c-4.24.76-8.47,1.76-12.8,2.35s-8.61,1.27-12.91,1.55-8.47.71-12.55.83c-8.16.39-15.78.24-22.29.05q-6.21-.3-10.88-.65c3.65-4.9,7.25-9.8,10.75-14.71,6.39-8.72,12.56-17.4,18.38-25.89s11.53-16.64,16.69-24.54c.31-.45.59-.87.89-1.33,3.81,4.9,21.66,2,41.8-3.26-3.87,26.22-6.4,54.45-.67,60.88-1.4.47-2.8.95-4.22,1.46C203.14,225.68,199,226.71,194.88,227.78ZM239.32,643c.54-6.49,1.25-14.08,2.55-22.14.58-4,1.35-8.19,2.24-12.38s2-8.41,3-12.66,2.54-8.32,3.78-12.45c1.53-4,3-8,4.6-11.74.67-1.35,1.3-2.69,1.93-4,9.33,10.41,78.14,5.67,101.92,3.69-6.49,20.4-10.54,38.81-5.76,43-5.67,2.21-11.47,4.42-17.48,6.62-9.58,3.65-19.54,7.25-29.71,10.76s-20.5,7.1-30.88,10.53c-12.3,4.1-24.63,8-36.76,11.71C238.86,650.75,239.05,647.11,239.32,643ZM343.45,675.3c-4-1.79-8-3.41-11.83-5.41s-7.6-3.81-11.15-5.84c-7.16-3.91-13.59-8-19-11.58-3.43-2.32-6.42-4.4-8.94-6.22,5.66-2.28,11.29-4.59,16.84-7,10-4.11,19.78-8.3,29.17-12.51s18.52-8.19,27-12.24l1.45-.67c.7,6.17,17.45,13,37.38,19-17,20.35-33.85,43.12-32.32,51.59-1.44-.32-2.88-.64-4.36-.94-4-1.06-8-2.33-12.1-3.58C351.58,678.4,347.45,677,343.45,675.3Z"/>
  </g>
</svg>
