<svg id="Layer_1" data-name="Layer 1" xmlns="http://www.w3.org/2000/svg" viewBox="0 0 1280 1024">
  <defs>
    <style>
      .cls-1 {
        fill: #8bc53f;
      }
    </style>
  </defs>
  <title>greenbamboorightlarge</title>
  <path class="cls-1" d="M1548.64,427.89l-21.18-14.5-21.18-14.51a7.32,7.32,0,0,0-7.46-.4l5.36-34.28c.86-12-7.21-12.06-7.21-12.06l-25.61-1.83-25.6-1.82s-8-1.07-8.85,10.91l1.06,83.17a297.86,297.86,0,0,1-4.14,53.43L1432,506.77c-3.39,4.57-6.87,9.07-10.51,13.42l-30.6,36.57-1.43-56.91a298.34,298.34,0,0,1,3.48-53.48l12.86-82.17c.85-12-7.21-12.06-7.21-12.06L1373,350.31l-25.61-1.82s-8-1.07-8.85,10.91l.14,10.94c-4.52-4.63-9.52-9.8-14.92-15.47-5.85-6.09-12.11-12.76-18.69-19.85s-13.43-14.66-20.57-22.44c-8-8.9-16.22-18.21-24.49-27.72h0c-6.34-7.29-12.7-14.68-19-22.18-7.27-8.62-14.51-17.26-21.44-25.93s-13.85-17.12-20.3-25.5q-5.44-6.92-10.54-13.62c16.31-1.94,31.93-112.52,31.93-112.52s-38.34,81.94-36.82,106c-1-1.36-2.09-2.76-3.08-4.11-5-6.63-9.62-12.87-13.92-18.89,10.49-12.77-69.5-94.22-69.5-94.22s49.22,94.72,66.38,95.55q3.52,5.58,7.43,11.49c-24.47-11.85-108.09-17-108.09-17s104.08,39.08,114,26c5.29,8.1,11,16.51,17.08,25.14s12.36,17.7,18.94,26.7,13.25,18.16,20.06,27.22q5.28,7.05,10.63,14c-2.39-.21-4.94-.42-7.73-.61-7.15-.39-15.49-.76-24.43-.55-4.47,0-9.08.24-13.76.58-4.68.19-9.42.86-14.15,1.35s-9.41,1.51-14,2.23c-4.12,1-8.15,1.88-12.06,2.9,2.63-16.23-104.73-52.24-104.73-52.24s69.68,49.82,95.48,55.15c-1.43.48-2.88.94-4.23,1.47-3.28,1.43-6.37,2.71-9.25,4-11.87-12-93.05,71.2-93.05,71.2s95.63-52.31,94.1-68.94c2.75-.92,5.68-1.82,8.75-2.79-7.06,10.8-11.36,43.92-13.78,71.33l-4.22,1.31-24.5,7.65s-7.84,1.92-4.26,13.39l31.33,77a298.48,298.48,0,0,1,15.65,51.26l14.14,67.69s1.41,7.22,9.08,4.83l25.29-7.89,25.3-7.89c7.67-2.39,4.72-9.13,4.72-9.13l-26.84-63.73a299.42,299.42,0,0,1-16.27-51.06l-18-81.2c-3.58-11.47-11.12-8.6-11.12-8.6l-9,2.81c8.32-28.57,16.22-61.91,10.52-69.72,1.55-.32,3.11-.64,4.68-1,4.27-.7,8.71-1.23,13.19-1.81,4.54-.24,9.11-.73,13.71-.78s9.19-.21,13.73.07c4.52.12,9,.37,13.26.78,8.59.65,16.56,1.82,23.35,2.87s12.39,2.27,16.25,3.18l4.41,1,1.35.35c5.87,7.49,11.72,14.86,17.41,22,6.74,8.22,13.15,16.26,19.43,23.72s12.16,14.56,17.7,21c11.46,13.44,21.14,24.39,27.84,31.84l.57,44.52a299.71,299.71,0,0,1-4.14,53.43l-11.53,68.18s-1.32,7.24,6.69,7.81l26.43,1.89,18.9,1.35a5.93,5.93,0,0,0,.67,5.81l-20-1.43L1331,577.79s-8-1.07-8.85,10.91l1,75.38-1,1.75a298.1,298.1,0,0,1-30.55,44L1270.54,735l-5.47-13A297.37,297.37,0,0,1,1248.8,671l-18-81.2c-3.58-11.47-11.12-8.6-11.12-8.6l-24.5,7.64-24.51,7.65s-7.83,1.92-4.26,13.39l31.34,77a297.57,297.57,0,0,1,15.64,51.26l14.15,67.69s1.41,7.22,9.07,4.83l25.3-7.89,21-6.56,9.83,6.73c6.63,4.54,10.1-2,10.1-2l5-9-.25,1.48s-1.32,7.23,6.69,7.81l26.43,1.88,26.43,1.89c8,.57,7.72-6.79,7.72-6.79l-1.73-69.12a298.64,298.64,0,0,1,2.25-44.23l43.51-53.32a19.24,19.24,0,0,0,2.17-4.07l.57,44.33a298,298,0,0,1-4.14,53.44L1406,793.49s-1.32,7.23,6.69,7.81l26.43,1.88,26.43,1.89c8,.57,7.73-6.79,7.73-6.79l-1.74-69.12a297.31,297.31,0,0,1,3.49-53.48l12.85-82.18c.86-12-7.21-12.06-7.21-12.06L1455,579.61l-4.56-.32,3.06-5.55,1.91.14,26.43,1.88c8,.57,7.73-6.78,7.73-6.78l-1.32-52.42q3.85-5.17,7.93-10.17L1548.78,442C1555.57,432,1548.64,427.89,1548.64,427.89Zm-129.9,189.67-21.18-14.5-8.67-5.94.57-3.62a20.91,20.91,0,0,0,0-3l11.4,7.81,20,13.73.11,8A7,7,0,0,0,1418.74,617.56Z"/>
</svg>
