<svg id="Layer_1" data-name="Layer 1" xmlns="http://www.w3.org/2000/svg" viewBox="0 0 1280 1024">
  <defs>
    <style>
      .cls-1 {
        fill: #8bc53f;
      }
    </style>
  </defs>
  <title>greenbamboorightlarge</title>
  <path class="cls-1" d="M1580.56,415.59l-23.45-13.13-23.46-13.14a7.87,7.87,0,0,0-7.88.2l2.88-35.63c-.06-12.39-8.56-11.78-8.56-11.78l-27.09.23-27.08.25s-8.51-.44-8.44,11.93l7.82,85.29a298.28,298.28,0,0,1,0,55.18l-1,11.21c-3.2,5-6.5,9.88-10,14.64L1425,560.91l-6.09-58.3a300,300,0,0,1-.65-55.18l6.91-85.41c-.07-12.39-8.56-11.78-8.56-11.78l-27.07.23-27.09.25s-8.51-.44-8.44,11.93l1,11.22c-5.12-4.38-10.8-9.27-16.94-14.65-6.65-5.77-13.77-12.1-21.27-18.83s-15.31-13.94-23.45-21.34c-9.13-8.47-18.53-17.35-28-26.43h0q-10.89-10.42-21.78-21.19c-8.34-8.25-16.66-16.52-24.65-24.85s-16-16.43-23.41-24.5q-6.29-6.65-12.19-13.11c17-3.34,24.53-118.13,24.53-118.13s-33.74,87.27-30.2,111.85c-1.16-1.32-2.42-2.67-3.57-4-5.79-6.39-11.16-12.42-16.17-18.24,10-14-80.72-91-80.72-91s59.43,93.16,77.55,92.59q4.15,5.44,8.74,11.18c-26.7-10.14-115.1-8.51-115.1-8.51s112.66,31.51,122,17.26c6.22,7.88,12.91,16,20,24.4s14.43,17.15,22.08,25.84,15.41,17.55,23.3,26.28q6.12,6.81,12.31,13.5c-2.53,0-5.23,0-8.18,0-7.55.19-16.36.5-25.75,1.45-4.7.37-9.53,1-14.43,1.74-4.91.58-9.84,1.66-14.78,2.55s-9.77,2.33-14.55,3.45c-4.25,1.36-8.42,2.6-12.45,4,1.46-16.88-114.4-45-114.4-45s77.33,45.38,104.9,48.72c-1.46.61-3,1.2-4.33,1.86-3.34,1.74-6.48,3.31-9.41,4.87-13.46-11.34-92.16,80.77-92.16,80.77s96.4-61.59,93.45-78.54c2.82-1.17,5.83-2.33,9-3.58-6.56,11.67-8.41,46-8.75,74.35l-4.34,1.7-25.16,9.87s-8.09,2.62-3.4,14.1l39.17,76.45a301.7,301.7,0,0,1,20.6,51.33l20.33,68.31s2.07,7.29,10,4.21l26-10.19,26-10.19c7.88-3.09,4.23-9.76,4.23-9.76l-33.37-63.2A303.57,303.57,0,0,1,1195,470.26l-25.48-81.86c-4.69-11.48-12.4-7.91-12.4-7.91l-9.24,3.63c6.45-30,12.08-64.89,5.45-72.44,1.6-.46,3.22-.91,4.84-1.41,4.44-1.07,9.07-2,13.73-2.95,4.76-.62,9.53-1.5,14.37-1.93s9.65-1,14.45-1.07c4.76-.25,9.5-.36,14-.29,9.09,0,17.57.5,24.8,1s13.22,1.31,17.35,1.93l4.73.66,1.44.25c6.78,7.2,13.53,14.28,20.1,21.14,7.75,7.88,15.14,15.6,22.35,22.74s14,13.94,20.32,20.1c13.14,12.85,24.2,23.29,31.85,30.38l4.19,45.65a300.14,300.14,0,0,1,0,55.19L1355.15,574s-.81,7.54,7.67,7.46l28-.24,20-.18A6,6,0,0,0,1412,587l-21.16.18-27.13.3s-8.51-.44-8.44,11.93l7.13,77.29-.91,1.88a307.07,307.07,0,0,1-28.59,47.69l-20.13,27.58-6.81-12.9a301.66,301.66,0,0,1-21.23-51l-25.48-81.87c-4.69-11.47-12.39-7.91-12.39-7.91L1221.65,610l-25.18,9.88s-8.08,2.62-3.4,14.1l39.18,76.45a299.92,299.92,0,0,1,20.59,51.32l20.34,68.31s2.07,7.3,9.94,4.21l26-10.19,21.57-8.47,10.88,6.1c7.34,4.11,10.47-2.89,10.47-2.89l4.53-9.65-.14,1.54s-.81,7.53,7.67,7.47l28-.26,28-.24c8.46-.08,7.57-7.61,7.57-7.61l-7.39-70.81a299,299,0,0,1-1.2-45.58l41.48-58.33a19.61,19.61,0,0,0,2-4.36l4.17,45.46a299.37,299.37,0,0,1,0,55.2l-6.59,71s-.8,7.53,7.67,7.47l28-.26,28-.24c8.47-.08,7.59-7.61,7.59-7.61l-7.4-70.81a298.29,298.29,0,0,1-.64-55.18l6.89-85.42c-.06-12.39-8.56-11.78-8.56-11.78l-27.15.24-4.83,0,2.78-6,2,0,28-.25c8.46-.08,7.58-7.6,7.58-7.6l-5.61-53.7q3.63-5.62,7.52-11.09l50.16-70.44C1588.18,419.24,1580.56,415.59,1580.56,415.59ZM1459.18,621l-23.46-13.13-9.6-5.38.31-3.77a21.19,21.19,0,0,0-.24-3.08l12.62,7.08L1461,615.18l.76,8.2A7.19,7.19,0,0,0,1459.18,621Z"/>
</svg>
