<svg xmlns="http://www.w3.org/2000/svg" viewBox="0 0 1096.97 950.24">
  <defs>
    <style>
      .cls-1 {
        fill: #303030;
      }

      .cls-2 {
        fill: #ededed;
      }

      .cls-3 {
        fill: #4c4c4c;
      }

      .cls-4 {
        fill: #f4f4f4;
      }
    </style>
  </defs>
  <title>Asset 1</title>
  <g id="Layer_2" data-name="Layer 2">
    <g id="Layer_1-2" data-name="Layer 1">
      <g>
        <path class="cls-1" d="M337.32,674.45s65.89,149.2,72.27,170.44,101.94,23.6,101.94,23.6l-68-202Z"/>
        <path class="cls-2" d="M498.48,82.37s-193.23,8.54-276.06,17S39.77,293.28,20.65,370.5s138,234.39,216.64,281.12,261.19,8.49,261.19,8.49Z"/>
        <path class="cls-1" d="M700.56,599.94s23.24,10,25.48,26.9C744.7,767.49,783.72,879,793.55,907.28s25.94,24,41.52,28.23,116.1,15.57,121.77-7.08S920,849.14,924.27,791.09c1.48-20.17,80.3-253.45,80.3-253.45Z"/>
        <path class="cls-3" d="M620.31,7.81C549.72,42.5,464.67,91.36,424.79,164.7S374.08,384.86,372,461.9s119.61,434.7,152.4,468,135.49,17.5,160.71,10.34c23.88-6.77-5.42-56.72-10.77-71.75,3.75-66-10.52-174.82-1.91-229.16s-18.89-32.16,35.68-35.5,210.64-20.94,279.66-39.69C868.69,380.25,741.36,193.5,620.31,7.81Z"/>
        <path class="cls-2" d="M619.85,8.08S836.47-64.81,992.94,227.21,669.31,435.58,669.41,421.53,581.62,66.13,619.85,8.08Z"/>
        <ellipse class="cls-3" cx="1034.71" cy="244.54" rx="62.26" ry="53.87"/>
        <path class="cls-4" d="M835.07,190.74s113.27,5.66,143,22.65,96.28,145.84,107.61,223.72S958.25,607,901.62,607,675.07,506.49,669.41,421.53,775.6,209.14,796.84,199.23,835.07,190.74,835.07,190.74Z"/>
        <ellipse class="cls-3" cx="774.19" cy="213.39" rx="73.63" ry="63.72"/>
        <path class="cls-3" d="M911.88,524.18c2.66-8,72.21-3.71,72.21,3.72s-22.3,40.89-41.41,36.64S909.23,532.15,911.88,524.18Z"/>
        <path class="cls-3" d="M847.81,373.39s-46.37,28.67-42.12,63.72,37,55.22,72.08,22.3S926,355.34,847.81,373.39Z"/>
        <path class="cls-3" d="M972.46,408.23s2.12,37.81,24.91,46.84,46-4.29,37.52-36.6S987.39,354.5,972.46,408.23Z"/>
        <path class="cls-3" d="M25.14,355.72c-38.67,122.33-38.21,400,40.38,506.16,0,0,144.42,14.87,155,0s-14.87-63.71-14.87-63.71,8.4-108.38,31.86-146.55C284.51,575.21,249.39,469.1,184,407,122.83,349,32.8,331.48,25.14,355.72Z"/>
      </g>
    </g>
  </g>
</svg>
