<?xml version="1.0" encoding="utf-8"?>
<!-- Generator: Adobe Illustrator 22.0.0, SVG Export Plug-In . SVG Version: 6.00 Build 0)  -->
<svg version="1.1" id="Layer_1" xmlns="http://www.w3.org/2000/svg" xmlns:xlink="http://www.w3.org/1999/xlink" x="0px" y="0px"
	 viewBox="0 0 1920 1080" style="enable-background:new 0 0 1920 1080;" xml:space="preserve">
<style type="text/css">
	.st0{fill:none;stroke:#E6E6E6;stroke-width:6;stroke-miterlimit:10;}
	.st1{fill:#FFFFFF;}
	.st2{fill:#C3C3C3;}
	.st3{fill:none;stroke:#C3C3C3;stroke-width:2;stroke-linecap:round;stroke-miterlimit:10;}
	.st4{fill:#4B4B4B;}
	.st5{font-family:'Marydale-Regular';}
	.st6{font-size:50px;}
	.st7{letter-spacing:-1;}
	.st8{letter-spacing:-3;}
	.st9{letter-spacing:3;}
	.st10{letter-spacing:-2;}
	.st11{letter-spacing:1;}
</style>
<title>pixingo-3frames-embed-text</title>
<g>
	<g id="Mobile">
		
			<image style="overflow:visible;enable-background:new    ;" width="750" height="1334" xlink:href="6A1B85769B9A6D5F.jpeg"  transform="matrix(0.24 0 0 0.24 654.77 175.22)">
		</image>
		<path class="st0" d="M672.8,128.9h142c14.5,0,26.3,11.8,26.3,26.3v349c0,14.5-11.8,26.3-26.3,26.3h-142
			c-14.5,0-26.3-11.8-26.3-26.3v-349C646.5,140.7,658.3,128.9,672.8,128.9z"/>
		<path class="st1" d="M814.9,128.9h-142c-14.5,0-26.3,11.8-26.3,26.3c0,0,0,0,0,0v349c0,14.5,11.8,26.3,26.3,26.3c0,0,0,0,0,0h142
			c14.5,0,26.3-11.8,26.3-26.3l0,0v-349C841.2,140.7,829.4,128.9,814.9,128.9C814.9,128.9,814.9,128.9,814.9,128.9z M829.8,483.2
			H657.9V176.3h171.9V483.2z"/>
		<circle class="st2" cx="712.3" cy="153.5" r="1.8"/>
		<line class="st3" x1="727.2" y1="152.6" x2="760.5" y2="152.6"/>
	</g>
	<g id="Mobile-2">
		
			<image style="overflow:visible;enable-background:new    ;" width="750" height="1334" xlink:href="6A1B85769B9A6D5D.jpeg"  transform="matrix(0.23 0 0 0.23 657.28 597.63)">
		</image>
		<path class="st0" d="M672.8,550.5h142c14.5,0,26.3,11.8,26.3,26.3v349c0,14.5-11.8,26.3-26.3,26.3h-142
			c-14.5,0-26.3-11.8-26.3-26.3v-349C646.5,562.2,658.3,550.5,672.8,550.5z"/>
		<path class="st1" d="M814.9,550.5h-142c-14.5,0-26.3,11.8-26.3,26.3c0,0,0,0,0,0v349c0,14.5,11.8,26.3,26.3,26.3c0,0,0,0,0,0h142
			c14.5,0,26.3-11.8,26.3-26.3c0,0,0,0,0,0v-349C841.2,562.2,829.4,550.5,814.9,550.5C814.9,550.5,814.9,550.5,814.9,550.5z
			 M829.8,904.8H657.9V597.8h171.9V904.8z"/>
		<circle class="st2" cx="712.3" cy="575" r="1.8"/>
		<line class="st3" x1="727.2" y1="574.1" x2="760.5" y2="574.1"/>
	</g>
	<g id="Mobile-3">
		
			<image style="overflow:visible;enable-background:new    ;" width="750" height="1334" xlink:href="6A1B85769B9A6D63.jpeg"  transform="matrix(0.49 0 0 0.49 883.97 215.99)">
		</image>
		<path class="st0" d="M917.8,115.7h300c30.7,0,55.6,24.9,55.6,55.6v737.3c0,30.7-24.9,55.6-55.6,55.6h-300
			c-30.7,0-55.6-24.9-55.6-55.6V171.4C862.2,140.6,887.1,115.7,917.8,115.7z"/>
		<path class="st1" d="M1217.9,115.7h-300c-30.7,0-55.6,24.9-55.6,55.6l0,0v737.3c0,30.7,24.9,55.6,55.6,55.6l0,0h300
			c30.7,0,55.6-24.9,55.6-55.6l0,0V171.4C1273.5,140.6,1248.6,115.7,1217.9,115.7L1217.9,115.7z M1249.4,864.2H886.3V215.8h363.1
			V864.2z"/>
		<circle class="st2" cx="1001.1" cy="167.6" r="3.7"/>
		<line class="st3" x1="1032.6" y1="165.8" x2="1103" y2="165.8"/>
	</g>
</g>
<g>
	<text transform="matrix(1 0 0 1 1403.72 514.5898)" class="st4 st5 st6">IOS 11 up</text>
	<text transform="matrix(1 0 0 1 1594.0699 514.5898)" class="st4 st5 st6 st7">d</text>
	<text transform="matrix(1 0 0 1 1618.97 514.5898)" class="st4 st5 st6">a</text>
	<text transform="matrix(1 0 0 1 1637.4199 514.5898)" class="st4 st5 st6 st8">t</text>
	<text transform="matrix(1 0 0 1 1654.22 514.5898)" class="st4 st5 st6">es </text>
	<text transform="matrix(1 0 0 1 1403.72 574.5898)" class="st4 st5 st6">and </text>
	<text transform="matrix(1 0 0 1 1486.8199 574.5898)" class="st4 st5 st6">b</text>
	<text transform="matrix(1 0 0 1 1505.12 574.5898)" class="st4 st5 st6 st7">u</text>
	<text transform="matrix(1 0 0 1 1521.02 574.5898)" class="st4 st5 st6 st9">g</text>
	<text transform="matrix(1 0 0 1 1547.72 574.5898)" class="st4 st5 st6"> fixes</text>
	<path class="st4" d="M1573.4,453c1.4-19.9,2.7-40.3-2-59.8c-4.4-18.3-14.6-34-30.4-44.5c-16.8-11.2-37-15.8-56.9-17.3
		c-24.2-1.8-48.7-0.4-72.9-0.1l-85.3,1.1c-0.4,0-0.8,0.3-0.8,0.8s0.3,0.8,0.8,0.8c46.7-0.6,93.5-2.2,140.1-1.8
		c21.8,0.2,44.2,2.3,64.1,12c18.3,8.9,32,23.8,38.2,43.4c6.6,21.1,5.1,43.8,3.6,65.5C1571.9,454,1573.4,454,1573.4,453L1573.4,453z"
		/>
	<path class="st4" d="M1326.9,333.4c5.8-6.5,12.4-12.3,19.6-17.1c0.8-0.5,0-1.8-0.8-1.3c-7.3,4.9-14,10.8-19.9,17.4
		C1325.2,333.1,1326.2,334.2,1326.9,333.4z"/>
	<path class="st4" d="M1325.9,333.7c6.5,6.2,14.2,11,22.6,14.2c0.9,0.3,1.3-1.1,0.4-1.4c-8.2-3.1-15.7-7.8-22-13.8
		C1326.2,332,1325.2,333,1325.9,333.7L1325.9,333.7z"/>
	<text transform="matrix(1 0 0 1 240.09 216.1401)" class="st4 st5 st6 st7">l</text>
	<text transform="matrix(1 0 0 1 249.84 216.1401)" class="st4 st5 st6">a</text>
	<text transform="matrix(1 0 0 1 268.29 216.1401)" class="st4 st5 st6">y</text>
	<text transform="matrix(1 0 0 1 288.69 216.1401)" class="st4 st5 st6">out </text>
	<text transform="matrix(1 0 0 1 363.39 216.1401)" class="st4 st5 st6 st10">r</text>
	<text transform="matrix(1 0 0 1 381.69 216.1401)" class="st4 st5 st6">e-design</text>
	<path class="st4" d="M380.2,240.2c-4.6,30.2,12,59.1,35.5,77.1c27.9,21.5,64.4,30.8,98.4,37.1c21.5,4,43.3,6.2,65.1,6.8
		c1,0,1-1.5,0-1.5c-35.8-0.8-71.4-6.4-105.8-16.5c-30.8-9.2-62.1-24-79.9-52c-9.5-15-14.5-32.8-11.8-50.5
		C381.8,239.7,380.3,239.3,380.2,240.2L380.2,240.2z"/>
	<path class="st4" d="M579.7,359.6c-8.2-7.9-15.6-16.6-22-26.1c-0.5-0.8-1.8,0-1.3,0.8c6.4,9.6,13.9,18.4,22.2,26.4
		C579.3,361.4,580.4,360.3,579.7,359.6z"/>
	<path class="st4" d="M579,359.6c-9.1,6.4-17.9,13.1-26.5,20.1c-0.8,0.6,0.3,1.7,1.1,1.1c8.4-7,17.2-13.6,26.2-19.9
		C580.5,360.4,579.8,359.1,579,359.6L579,359.6z"/>
	<text transform="matrix(1 0 0 1 298.22 797.5801)" class="st4 st5 st6">3rd </text>
	<text transform="matrix(1 0 0 1 369.92 797.5801)" class="st4 st5 st6">p</text>
	<text transform="matrix(1 0 0 1 386.57 797.5801)" class="st4 st5 st6">ar</text>
	<text transform="matrix(1 0 0 1 422.6867 799.2468)" class="st4 st5 st6">t</text>
	<text transform="matrix(1 0 0 1 442.17 797.5801)" class="st4 st5 st6">y lib</text>
	<text transform="matrix(1 0 0 1 524.22 797.5801)" class="st4 st5 st6 st7">r</text>
	<text transform="matrix(1 0 0 1 543.72 797.5801)" class="st4 st5 st6">ary</text>
	<text transform="matrix(1 0 0 1 298.22 857.5801)" class="st4 st5 st6 st10">r</text>
	<text transform="matrix(1 0 0 1 316.52 857.5801)" class="st4 st5 st6">efa</text>
	<text transform="matrix(1 0 0 1 378.77 857.5801)" class="st4 st5 st6 st7">c</text>
	<text transform="matrix(1 0 0 1 403.22 857.5801)" class="st4 st5 st6 st8">t</text>
	<text transform="matrix(1 0 0 1 419.87 857.5801)" class="st4 st5 st6">o</text>
	<text transform="matrix(1 0 0 1 438.17 857.5801)" class="st4 st5 st6">r</text>
	<text transform="matrix(1 0 0 1 457.82 857.5801)" class="st4 st5 st6">i</text>
	<text transform="matrix(1 0 0 1 469.52 857.5801)" class="st4 st5 st6 st11">n</text>
	<text transform="matrix(1 0 0 1 489.62 857.5801)" class="st4 st5 st6 st9">g</text>
	<path class="st4" d="M431.5,733.1c55.2-27.2,113.7-47.2,174-59.7c0.7-0.1,0.6-1,0.2-1.4l-20.3-15.4c-0.8-0.6-1.5,0.7-0.8,1.3
		l20.4,15.5l0.2-1.4c-60.4,12.5-119,32.6-174.4,59.8C429.9,732.3,430.7,733.5,431.5,733.1L431.5,733.1z"/>
	<path class="st4" d="M604.5,672.9c-5.1,8.7-10.4,17.3-16,25.7c-0.5,0.8,0.8,1.6,1.3,0.8c5.6-8.4,10.9-17,16-25.7
		c0.2-0.4,0.1-0.8-0.3-1C605.1,672.5,604.7,672.6,604.5,672.9L604.5,672.9z"/>
</g>
</svg>
