<svg id="Layer_1" data-name="Layer 1" xmlns="http://www.w3.org/2000/svg" viewBox="0 0 1280 1024">
  <defs>
    <style>
      .cls-1 {
        fill: #fff;
      }
    </style>
  </defs>
  <title>whitebamboo</title>
  <g>
    <path class="cls-1" d="M593.11,725.69c1.11-15.6-9.39-15.7-9.39-15.7l-33.34-2.37-33.33-2.38s-10.41-1.39-11.52,14.21l1.38,108.27a387.68,387.68,0,0,1-5.39,69.56l-15,88.76s-1.72,9.42,8.7,10.16l34.41,2.46,34.41,2.45c10.42.74,10.06-8.83,10.06-8.83l-2.26-90a388.25,388.25,0,0,1,4.53-69.62Z"/>
    <path class="cls-1" d="M516.51,697.69l34.41,2.46,34.4,2.45c10.43.74,10.06-8.83,10.06-8.83l-2.26-90a388.26,388.26,0,0,1,4.54-69.62l16.73-107c1.12-15.6-9.39-15.7-9.39-15.7l-33.33-2.38-33.33-2.37s-10.41-1.39-11.53,14.21l1.39,108.27a387.68,387.68,0,0,1-5.39,69.56l-15,88.76S506.08,697,516.51,697.69Z"/>
    <path class="cls-1" d="M537.68,400.87l34.4,2.45,34.41,2.46c10.42.74,10.06-8.83,10.06-8.83l-2.26-90a388.26,388.26,0,0,1,4.54-69.62l16.73-107c1.11-15.6-9.39-15.7-9.39-15.7l-33.33-2.38-33.34-2.37s-10.41-1.4-11.52,14.21l1.38,108.27A387.75,387.75,0,0,1,544,302l-15,88.76S527.25,400.13,537.68,400.87Z"/>
    <path class="cls-1" d="M710.66,719l-32.8-6.42-32.79-6.43s-10.16-2.65-13.17,12.7L620.06,826.52a387.35,387.35,0,0,1-13.83,68.38l-25.72,86.27s-2.86,9.14,7.4,11.15L621.76,999l33.85,6.64c10.26,2,11.06-7.54,11.06-7.54l8.74-89.59a389,389,0,0,1,13-68.55l29.66-104.14C721.07,720.42,710.66,719,710.66,719Z"/>
    <path class="cls-1" d="M798.47,432.13l-32-9.67-32-9.68s-9.84-3.65-14.37,11.32L697.58,530A388.52,388.52,0,0,1,677,596.66l-34.22,83.26S639,688.73,649,691.76l33,10,33,10c10,3,11.76-6.39,11.76-6.39l17.66-88.27a388.26,388.26,0,0,1,19.78-66.9l39.93-100.65C808.69,434.55,798.47,432.13,798.47,432.13Z"/>
    <path class="cls-1" d="M937.74,164.12l-29.61-15.5-29.61-15.5s-9-5.43-16.24,8.42l-42,99.8c-2.7,6.41-5.62,12.72-8.66,19-1.12-2.08-2.27-4.26-3.51-6.65-3.5-7-7.52-15.32-11.2-24.45-1.93-4.54-3.74-9.3-5.43-14.19-1.87-4.85-3.24-9.91-4.82-14.94s-2.58-10.18-3.89-15.22c-.92-5.08-1.87-10.11-2.59-15-.15-1.81-.34-3.59-.52-5.36,19.55,6,115.45-65.69,115.45-65.69s-98.84,35.45-116.15,56c0-3.63,0-7.1,0-10.38,18.67-4.39,43-126.34,43-126.34s-62.86,116.73-46,126c-.45,3.6-.8,7.44-1.26,11.52-.11,1.58-.13,3.24-.16,4.88-15-26.49-92.79-85.15-92.79-85.15S757.37,179.6,774.52,172c.22,4.59.56,9.28.91,14.09.77,5.29,1.3,10.75,2.32,16.1s1.94,10.76,3.32,16c1.21,5.24,2.55,10.36,4,15.25,2.8,9.86,6,18.87,8.88,26.57s5.61,14,7.63,18.4c.11.24.19.4.29.63-4.52,8.16-9.26,16.21-14.36,24l-49.23,75.36s-5.34,7.95,3.92,12.8l30.56,16,30.56,16c9.26,4.85,12.75-4.07,12.75-4.07L850,335.65a388.42,388.42,0,0,1,32-62l58.09-91.37C947.33,168.41,937.74,164.12,937.74,164.12Z"/>
    <path class="cls-1" d="M460.26,898.1a388.09,388.09,0,0,1-4.39-69.63l2.94-108.24c-.89-15.61-11.31-14.37-11.31-14.37l-33.37,1.9-33.37,1.89s-10.5,0-9.61,15.57l15.19,107.2a387.65,387.65,0,0,1,3.54,69.68l-3.56,89.95s-.5,9.57,9.94,9l34.43-1.95,34.44-2c10.44-.6,8.85-10,8.85-10Z"/>
    <path class="cls-1" d="M369.33,693.27s-.5,9.56,9.94,9l34.44-2,34.43-2c10.44-.59,8.85-10,8.85-10l-13.72-89a388.09,388.09,0,0,1-4.39-69.63l2.94-108.24c-.89-15.62-11.31-14.38-11.31-14.38L397.14,409l-33.36,1.9s-10.51-.06-9.62,15.56l15.19,107.21a387.61,387.61,0,0,1,3.54,69.68Z"/>
    <path class="cls-1" d="M352.44,396.17s-.5,9.57,9.93,9l34.44-2,34.44-1.95c10.44-.6,8.85-10,8.85-10l-13.73-89A388.08,388.08,0,0,1,422,232.59l2.94-108.24C424,108.73,413.61,110,413.61,110l-33.36,1.89-33.37,1.9s-10.5,0-9.61,15.57l15.19,107.2A387.65,387.65,0,0,1,356,306.22Z"/>
  </g>
</svg>
